<svg xmlns="http://www.w3.org/2000/svg" viewBox="0 0 320 160" role="img" aria-label="A fox painting a stroke with its tail">
  <defs>
    <linearGradient id="fbg" x1="0" x2="1" y1="0" y2="0">
      <stop offset="0" stop-color="#96DCDF"/>
      <stop offset=".55" stop-color="#FFC195"/>
      <stop offset="1" stop-color="#FCA481"/>
    </linearGradient>
  </defs>
  <path d="M8 120 C70 40 150 150 236 78 C160 132 84 64 8 120 Z" fill="url(#fbg)"/>
  <path d="M236 78 C246 70 256 66 266 68 C258 74 248 78 236 78 Z" fill="#FFE6D8"/>
  <g transform="translate(244 14) scale(.7)">
    <path d="M50 90 L16 50 L20 10 L39 32 L61 32 L80 10 L84 50 Z" fill="#FCA481"/>
    <path d="M24 20 L35 34 L26 40 Z M76 20 L65 34 L74 40 Z" fill="#3B3A50"/>
    <path d="M16 50 L41 59 L50 90 Z" fill="#FFE6D8"/>
    <path d="M84 50 L59 59 L50 90 Z" fill="#FFE6D8"/>
    <path d="M33 50 Q38 46 43 50 Q38 53 33 50 Z M57 50 Q62 46 67 50 Q62 53 57 50 Z" fill="#363D4E"/>
    <circle cx="50" cy="84" r="4" fill="#363D4E"/>
  </g>
  <circle cx="30" cy="136" r="4" fill="#FCA481"/>
  <circle cx="46" cy="144" r="2.5" fill="#96DCDF"/>
</svg>
